<?xml version="1.0" encoding="UTF-8" standalone="no"?>
<svg
   version="1.1"
   viewBox="0 0 405.7594 433.18417"
   id="svg154"
   sodipodi:docname="logo.svg"
   inkscape:export-filename="DALL·E 2023-10-17 12.09.51 - Minimalist logo for 'League of Replays' that can easily separate the logo and text. The design subtly reflects the character 'Shaco' with a stylized j.png"
   inkscape:export-xdpi="96"
   inkscape:export-ydpi="96"
   inkscape:version="1.3.2 (1:1.3.2+202311252150+091e20ef0f)"
   width="405.7594"
   height="433.18417"
   xmlns:inkscape="http://www.inkscape.org/namespaces/inkscape"
   xmlns:sodipodi="http://sodipodi.sourceforge.net/DTD/sodipodi-0.dtd"
   xmlns="http://www.w3.org/2000/svg"
   xmlns:svg="http://www.w3.org/2000/svg">
  <defs
     id="defs154" />
  <sodipodi:namedview
     id="namedview154"
     pagecolor="#ffffff"
     bordercolor="#666666"
     borderopacity="1.0"
     inkscape:showpageshadow="2"
     inkscape:pageopacity="0.0"
     inkscape:pagecheckerboard="0"
     inkscape:deskcolor="#d1d1d1"
     inkscape:zoom="1.0606602"
     inkscape:cx="79.667363"
     inkscape:cy="338.46844"
     inkscape:window-width="1920"
     inkscape:window-height="1080"
     inkscape:window-x="1920"
     inkscape:window-y="0"
     inkscape:window-maximized="0"
     inkscape:current-layer="svg154" />
  <g
     id="g1"
     transform="translate(-1.0011682,1.5560656)">
    <path
       stroke="#807d82"
       vector-effect="non-scaling-stroke"
       d="m 238.89836,337.54507 c 4.26108,-2.56294 8.77372,-5.27524 13.137,-7.052 q 13.40429,-5.46392 28.19226,-5.37744 a 0.6603876,0.66824935 10.9 0 0 0.62894,-0.4324 q 0.0786,-0.21227 -0.0786,-0.55032 -5.19662,-10.80206 -13.66373,-19.33992 -0.25158,-0.25158 0,-0.51102 14.00179,-14.59928 34.11216,-17.94053 a 0.47170543,0.46384367 85.1 0 1 0.54246,0.46385 l -0.0943,68.92402 a 1.0456137,1.0534755 82.7 0 1 -0.78617,1.01417 c -9.04102,2.31135 -13.71091,11.82408 -9.15895,20.1654 4.55196,8.34919 14.89017,10.22029 21.76134,3.83654 8.24699,-7.68094 5.6133,-19.76446 -4.57554,-23.9705 q -0.31447,-0.13365 -0.31447,-0.47956 l 0.11001,-158.93329 q 0,-0.38522 0.37736,-0.33019 17.42952,2.61797 24.30069,17.76757 c 3.09753,6.81615 3.34911,15.11816 2.92458,22.87772 -0.11793,2.13839 0.0472,6.69035 -1.46229,8.3256 q -4.98436,5.39316 0.1651,10.25959 0.28302,0.2673 0.28302,0.66039 l 0.23585,49.45045 q 0.008,0.37736 -0.34592,0.5346 -8.03471,3.56924 -8.95454,11.39168 c -1.42298,12.08353 11.58037,20.73932 21.80852,13.82884 11.14011,-7.52371 7.11489,-22.66545 -5.15732,-25.72367 q -0.29874,-0.0708 -0.29874,-0.37737 l -0.12579,-54.12033 a 1.3364987,1.3129134 69.4 0 1 0.44026,-0.99059 c 29.458,-26.24254 24.21421,-70.73222 -4.63058,-94.57693 -27.03658,-22.33525 -63.18494,-19.57577 -90.64606,0.25157 q -0.34591,0.24372 -0.51101,-0.14937 L 212.45927,73.562991 q -0.18082,-0.432396 0.1651,-0.746867 10.0945,-9.009573 4.12742,-19.489296 c -10.30676,-18.097765 -37.21756,-1.289327 -24.2771,16.399626 0.76259,1.045614 2.05192,2.044057 3.03464,3.066085 q 0.25157,0.259438 0.11006,0.597494 l -34.56815,83.161657 q -0.18868,0.47171 -0.61321,0.18869 c -23.89188,-15.9515 -52.4851,-22.46104 -79.30155,-8.02686 -17.610336,9.48128 -31.171868,26.54916 -34.811861,46.40009 q -5.786253,31.53351 17.232972,55.16595 0.550323,0.55819 1.061337,1.18713 0.235853,0.29088 0.243714,0.66825 l 0.08648,53.79014 a 0.61321705,0.61321705 0 0 1 -0.330194,0.54246 c -0.864793,0.44812 -2.248463,0.69183 -2.932436,1.09278 q -9.402661,5.44034 -7.657351,14.75652 1.194987,6.36803 6.171479,9.93726 c 8.270569,5.91991 20.40126,0.22013 21.549077,-9.92153 q 1.250019,-11.10081 -9.308321,-15.40119 -0.345917,-0.14151 -0.345917,-0.51101 l -0.0079,-49.51335 q 0,-0.36164 0.306609,-0.56604 4.198178,-2.72803 2.728029,-7.9561 -0.267299,-0.95127 -2.665135,-3.01892 -0.306609,-0.25943 -0.330194,-0.66825 c -0.746867,-13.99392 -1.816066,-25.97524 5.566124,-36.09332 q 7.507978,-10.2989 21.022338,-11.21087 0.361641,-0.0236 0.361641,0.33806 l 0.157235,158.76818 a 0.51887597,0.53459948 78.8 0 1 -0.345917,0.50315 c -13.962481,5.04725 -11.541059,25.70009 3.113251,27.41395 6.01425,0.6997 10.87281,-2.05192 13.75808,-7.38219 q 5.57399,-10.31462 -4.70919,-18.61664 -1.6038,-1.29719 -4.72492,-1.63524 -0.40881,-0.0472 -0.40881,-0.45599 v -69.76523 a 0.47170543,0.47170543 0 0 1 0.57391,-0.45598 q 19.47357,4.2139 33.77411,17.97984 a 0.67611111,0.68397287 43.3 0 1 0.0236,0.95913 q -8.16837,8.71083 -12.68888,19.83522 -0.0708,0.18082 0.12579,0.18082 23.12143,-0.18869 42.02896,12.92472 0.4324,0.29089 -0.0943,0.30661 c -4.95291,0.15724 -12.05208,1.6667 -15.14961,6.02211 a 1.1714018,1.1714018 0 0 0 0.85693,1.84751 c 21.50977,1.73745 37.55562,18.6245 48.15327,35.89678 a 0.77831395,0.77831395 0 0 0 1.33649,-0.0157 q 5.03153,-8.70296 11.88698,-16.49397 c 9.96871,-11.33665 21.76134,-16.71409 36.0383,-19.65439 a 1.2421576,1.2500194 66.2 0 0 0.76259,-1.94971 c -2.78307,-3.88371 -10.14167,-5.55827 -14.58356,-6.09287 a 0.1650969,0.1650969 0 0 1 -0.0629,-0.3066"
       id="path3"
       style="fill:none;stroke-width:1.57235;stroke-linecap:butt" />
    <path
       stroke="#160e34"
       vector-effect="non-scaling-stroke"
       d="m 197.82854,61.102106 c 2.14626,7.445084 12.15428,8.388495 12.12283,-1.250019"
       id="path21"
       style="fill:none;stroke-width:1.57235;stroke-linecap:butt" />
    <path
       stroke="#24378a"
       vector-effect="non-scaling-stroke"
       d="m 209.95137,59.852087 q 0.12579,-5.479645 -4.77995,-5.660465 -7.24854,-0.275162 -7.34288,6.910484"
       id="path22"
       style="fill:none;stroke-width:1.57235;stroke-linecap:butt" />
    <path
       stroke="#3844a9"
       vector-effect="non-scaling-stroke"
       d="m 209.95137,59.852087 q -2.09909,0.165097 -4.13528,0.196544 c -2.96388,0.03931 -5.20448,0.518876 -7.98755,1.053475"
       id="path23"
       style="fill:none;stroke-width:1.57235;stroke-linecap:butt" />
    <path
       stroke="#23236c"
       vector-effect="non-scaling-stroke"
       d="m 203.57549,82.085136 -32.87787,79.671044 a 1.0220284,1.0063049 31.3 0 0 0.29088,1.16354 q 9.55204,7.94823 18.54589,16.82416 3.37269,3.33338 13.06624,16.25811"
       id="path24"
       style="fill:none;stroke-width:1.57235;stroke-linecap:butt" />
    <path
       stroke="#160e34"
       vector-effect="non-scaling-stroke"
       d="m 202.60063,196.00199 q 0.35378,1.37581 1.29719,2.02047 0.34592,0.23586 0.64466,-0.0629 0.87266,-0.88052 1.83179,-2.38998 12.10711,-19.07262 30.86526,-32.72063 a 0.97485788,0.98271964 62 0 0 0.34592,-1.11637 q -4.05667,-11.3052 -8.87592,-22.53178 C 222.59308,124.96316 217.46721,112.69882 211.74385,99.491066 209.36174,94.011422 207.129,87.698431 204.64469,81.809975 a 0.55818475,0.56604651 62.1 0 0 -0.82549,-0.251577 q -0.11006,0.07076 -0.24371,0.526738"
       id="path25"
       style="fill:none;stroke-width:1.57235;stroke-linecap:butt" />
    <path
       stroke="#37308b"
       vector-effect="non-scaling-stroke"
       d="m 202.60063,196.00199 q 0.76259,0.11007 0.76259,-1.2343 -0.0786,-29.24573 0.64466,-78.16944 c 0.13365,-9.33977 1.28933,-22.476764 0.37737,-33.978514 q -0.0315,-0.361641 -0.20441,-0.471706 -0.22013,-0.149373 -0.60535,-0.06289"
       id="path26"
       style="fill:none;stroke-width:1.57235;stroke-linecap:butt" />
    <path
       stroke="#24378a"
       vector-effect="non-scaling-stroke"
       d="m 85.169561,157.25139 -5.298824,3.9466"
       id="path27"
       style="fill:none;stroke-width:1.57235;stroke-linecap:butt" />
    <path
       stroke="#477d89"
       vector-effect="non-scaling-stroke"
       d="m 79.870737,161.19799 -1.25002,0.99845"
       id="path28"
       style="fill:none;stroke-width:1.57235;stroke-linecap:butt" />
    <path
       stroke="#24378a"
       vector-effect="non-scaling-stroke"
       d="m 78.620717,162.19644 q -0.511014,-0.0314 -0.888378,0.26729 -9.426247,7.43723 -15.542694,17.69682 -0.40095,0.68397 -1.43084,3.05036 -0.511014,1.18713 -1.446563,3.0425 -7.059858,14.04896 -3.262629,30.12626"
       id="path29"
       style="fill:none;stroke-width:1.57235;stroke-linecap:butt" />
    <path
       stroke="#23236c"
       vector-effect="non-scaling-stroke"
       d="m 56.049613,216.37967 5.047248,14.53638 a 0.25943798,0.25943798 0 0 0 0.487429,0.008 q 0.157235,-0.40095 0.07075,-1.00631"
       id="path30"
       style="fill:none;stroke-width:1.57235;stroke-linecap:butt" />
    <path
       stroke="#160e34"
       vector-effect="non-scaling-stroke"
       d="m 61.655045,229.91761 -0.283023,-8.30988 q -0.01572,-0.38522 0.125788,-0.739 c 0.58177,-1.47801 0.455982,-3.24691 0.762591,-4.45762 q 1.43084,-5.77839 4.575542,-10.81778 c 0.896241,-1.44656 1.611661,-4.151 2.421422,-5.03152 q 11.564644,-12.61812 27.87779,-14.1433 c 18.655945,-1.74531 37.256865,10.14953 47.587215,25.11831 a 1.391531,1.3679457 73.9 0 0 1.04562,0.58963 c 18.45154,1.16354 36.27415,7.40578 50.59041,19.33207 q 1.47014,1.23429 4.76422,3.27049"
       id="path31"
       style="fill:none;stroke-width:1.57235;stroke-linecap:butt" />
    <path
       stroke="#24378a"
       vector-effect="non-scaling-stroke"
       d="m 201.12262,234.72901 2.27205,2.74375 q 0.2673,0.32233 0.68397,0.22799 0.56605,-0.12579 0.77831,-0.79404"
       id="path32"
       style="fill:none;stroke-width:1.57235;stroke-linecap:butt" />
    <path
       stroke="#160e34"
       vector-effect="non-scaling-stroke"
       d="m 204.85695,236.90671 q 0.74687,0.055 1.79249,-0.76259 c 4.16673,-3.26263 8.34918,-7.03627 12.50805,-9.68568 q 11.39955,-7.24854 24.33214,-11.08508 c 6.19506,-1.83965 13.3414,-2.72803 20.0632,-3.63999 a 2.1069509,2.0676421 12.9 0 0 1.44657,-0.88838 c 5.32241,-7.80673 13.19989,-14.88231 21.26605,-19.20627 13.89959,-7.45295 32.05238,-7.97969 45.14221,2.27204 12.12283,9.50487 16.53327,23.79754 14.66218,38.66412 a 0.35473865,0.35473865 0 0 0 0.69183,0.15724 l 3.412,-10.05519"
       id="path33"
       style="fill:none;stroke-width:1.57235;stroke-linecap:butt" />
    <path
       stroke="#24378a"
       vector-effect="non-scaling-stroke"
       d="m 350.17367,222.67693 c 4.59127,-15.76282 2.673,-33.72694 -7.90892,-46.57305"
       id="path34"
       style="fill:none;stroke-width:1.57235;stroke-linecap:butt" />
    <path
       stroke="#477d89"
       vector-effect="non-scaling-stroke"
       d="m 342.26475,176.10388 -1.64311,-2.6101"
       id="path35"
       style="fill:none;stroke-width:1.57235;stroke-linecap:butt" />
    <path
       stroke="#160e34"
       vector-effect="non-scaling-stroke"
       d="m 340.62164,173.49378 q -3.05823,-5.43247 -7.76742,-9.85078 c -1.99688,-1.8711 -3.64785,-3.03464 -6.40733,-5.14159 q -3.52207,-2.69658 -7.6888,-4.25321 c -1.8711,-0.69184 -3.6793,-0.42454 -5.68405,-0.52674"
       id="path36"
       style="fill:none;stroke-width:1.57235;stroke-linecap:butt" />
    <path
       stroke="#477d89"
       vector-effect="non-scaling-stroke"
       d="m 313.07404,153.72146 q -12.35082,-3.6793 -23.78181,-2.31922 -6.43092,0.76259 -16.50183,3.65572"
       id="path37"
       style="fill:none;stroke-width:1.57235;stroke-linecap:butt" />
    <path
       stroke="#160e34"
       vector-effect="non-scaling-stroke"
       d="m 272.7904,155.05796 q -3.5771,0.0708 -6.70608,1.87896 -0.50315,0.28302 -1.26574,0.49529 c -1.12424,0.31447 -1.96544,1.01417 -3.13685,1.34436 q -3.53779,0.97486 -5.3224,4.40258"
       id="path38"
       style="fill:none;stroke-width:1.57235;stroke-linecap:butt" />
    <path
       stroke="#477d89"
       vector-effect="non-scaling-stroke"
       d="m 256.35933,163.17915 -8.78945,5.77053"
       id="path39"
       style="fill:none;stroke-width:1.57235;stroke-linecap:butt" />
    <path
       stroke="#24378a"
       vector-effect="non-scaling-stroke"
       d="m 247.56988,168.94968 q -15.66062,11.03005 -27.24885,26.68281 c -7.31143,9.87437 -12.3744,20.73931 -15.86503,32.46906 a 0.29088501,0.29088501 0 0 1 -0.55818,0 q -10.75488,-33.64046 -38.95501,-55.25243"
       id="path40"
       style="fill:none;stroke-width:1.57235;stroke-linecap:butt" />
    <path
       stroke="#477d89"
       vector-effect="non-scaling-stroke"
       d="m 164.94281,172.84912 -12.29578,-8.88379"
       id="path41"
       style="fill:none;stroke-width:1.57235;stroke-linecap:butt" />
    <path
       stroke="#160e34"
       vector-effect="non-scaling-stroke"
       d="m 152.64703,163.96533 q -3.05823,-3.95446 -8.01113,-5.51895 -1.47016,-0.46385 -2.84596,-1.4387 -1.94972,-1.37581 -4.03308,-1.84752 -1.72959,-0.38522 -3.07395,-0.9041 -1.62738,-0.62894 -3.0425,-0.78618 -2.48432,-0.26729 -3.3098,-0.89624 -2.76734,-2.10695 -4.33183,-2.35066 -5.26738,-0.80976 -13.71091,-0.6368 -4.08025,0.0865 -8.24698,1.04561 -4.551956,1.04561 -8.097608,2.04406 -4.842842,1.36794 -8.773721,4.57554"
       id="path42"
       style="fill:none;stroke-width:1.57235;stroke-linecap:butt" />
    <path
       stroke="#5b8aa8"
       vector-effect="non-scaling-stroke"
       d="m 152.64703,163.96533 q -14.37916,-8.73441 -28.05862,-11.71402 -19.54433,-4.26107 -38.30248,5.07084"
       id="path43"
       style="fill:none;stroke-width:1.57235;stroke-linecap:butt" />
    <path
       stroke="#3844a9"
       vector-effect="non-scaling-stroke"
       d="m 86.28593,157.32215 -1.116369,-0.0708"
       id="path44"
       style="fill:none;stroke-width:1.57235;stroke-linecap:butt" />
    <path
       stroke="#69b3fe"
       vector-effect="non-scaling-stroke"
       d="m 164.94281,172.84912 q -0.17295,0.4717 -0.2673,0.40881 -13.04265,-9.1275 -27.86993,-14.93734 -13.56939,-5.31455 -27.35891,-4.55196 c -16.800578,0.91983 -30.542929,8.9231 -41.455048,21.65914 q -0.102203,0.12579 -0.110065,-0.0393 v -0.40095 q -0.0079,-0.18082 0.08648,-0.33019 3.812953,-6.19506 8.663657,-10.51903 1.580213,-1.40726 1.989024,-1.94185"
       id="path45"
       style="fill:none;stroke-width:1.57235;stroke-linecap:butt" />
    <path
       stroke="#69b3fe"
       vector-effect="non-scaling-stroke"
       d="m 79.870737,161.19799 6.415193,-3.87584"
       id="path46"
       style="fill:none;stroke-width:1.57235;stroke-linecap:butt" />
    <path
       stroke="#3844a9"
       vector-effect="non-scaling-stroke"
       d="m 350.17367,222.67693 q -0.55032,0.38523 -0.43239,-0.8019 c 0.91196,-8.97812 0.16509,-18.93111 -3.60855,-26.96582 -4.07239,-8.67152 -11.39169,-16.0144 -19.8588,-20.41699 -10.9986,-5.71549 -24.74881,-5.99852 -36.54145,-2.53934 q -6.17934,1.81606 -14.52066,5.96707 c -14.33985,7.13847 -29.22215,18.11349 -40.68459,27.50829 q -16.90278,13.86028 -29.67028,31.47847"
       id="path47"
       style="fill:none;stroke-width:1.57235;stroke-linecap:butt" />
    <path
       stroke="#3844a9"
       vector-effect="non-scaling-stroke"
       d="m 201.12262,234.72901 q -4.7485,-7.18565 -7.80672,-10.41683 -22.27236,-23.46735 -49.63914,-40.62956 c -14.55211,-9.11964 -32.55554,-16.7141 -50.110842,-13.06624 -19.253444,4.00949 -32.712772,18.82104 -34.866893,38.30248"
       id="path48"
       style="fill:none;stroke-width:1.57235;stroke-linecap:butt" />
    <path
       stroke="#4559e1"
       vector-effect="non-scaling-stroke"
       d="m 58.699025,208.91886 -0.314471,10.91998 a 0.35377907,0.35377907 0 0 1 -0.699696,0.0629 q -0.408811,-1.83179 -1.635245,-3.52206"
       id="path49"
       style="fill:none;stroke-width:1.57235;stroke-linecap:butt" />
    <path
       stroke="#37308b"
       vector-effect="non-scaling-stroke"
       d="m 61.655045,229.91761 q -0.322332,-2.58652 -1.124231,-5.08656 -1.037752,-3.23904 -1.242157,-5.0158 -0.636803,-5.41675 -0.589632,-10.89639"
       id="path50"
       style="fill:none;stroke-width:1.57235;stroke-linecap:butt" />
    <path
       stroke="#5b8aa8"
       vector-effect="non-scaling-stroke"
       d="m 313.07404,153.72146 q 11.21873,4.07239 19.89811,12.31151 3.75792,3.56924 7.64949,7.46081"
       id="path51"
       style="fill:none;stroke-width:1.57235;stroke-linecap:butt" />
    <path
       stroke="#69b3fe"
       vector-effect="non-scaling-stroke"
       d="m 342.26475,176.10388 0.18868,1.09279 a 0.39308786,0.39308786 0 0 1 -0.68398,0.33019 c -4.6856,-5.18876 -9.90581,-10.67626 -15.43262,-14.43418 q -18.93112,-12.86184 -42.54783,-8.18409 -17.02857,3.36483 -29.90613,11.26589 -3.93874,2.42143 -6.31299,2.7752"
       id="path52"
       style="fill:none;stroke-width:1.57235;stroke-linecap:butt" />
    <path
       stroke="#5b8aa8"
       vector-effect="non-scaling-stroke"
       d="m 256.35933,163.17915 q 8.1605,-4.75636 16.43107,-8.12119"
       id="path53"
       style="fill:none;stroke-width:1.57235;stroke-linecap:butt" />
    <path
       stroke="#807d82"
       vector-effect="non-scaling-stroke"
       d="m 132.78823,216.84351 c -5.62116,-9.10392 -15.85717,-16.39963 -26.5413,-19.06476 q -0.40095,-0.0943 -0.40095,0.31447 l 0.0708,81.78586 q 0,1.706 1.4387,0.79403 c 11.56465,-7.34288 23.89975,-9.09605 37.32763,-9.0646 q 0.44812,0 0.33019,-0.4324 c -2.38211,-8.9624 -4.81139,-17.97984 -6.37588,-27.02086 q -1.50946,-8.77372 -2.82237,-17.58675 c -0.51888,-3.47489 -1.42298,-7.11489 -3.02678,-9.72499"
       id="path54"
       style="fill:none;stroke-width:1.57235;stroke-linecap:butt" />
    <path
       stroke="#807d82"
       vector-effect="non-scaling-stroke"
       d="m 291.19477,276.16047 c 3.03464,1.14781 6.58029,3.12898 9.95299,4.70133 q 0.5739,0.25943 0.5739,-0.36951 l -0.0236,-82.36762 q 0,-0.39309 -0.38523,-0.29875 c -13.12913,3.27049 -26.01455,13.46719 -28.36522,27.39822 q -3.05036,18.0506 -7.02055,35.93609 c -0.66038,2.98747 -2.04405,6.28941 -2.94029,9.48914 q -0.12579,0.44812 0.34591,0.50316 c 9.56776,1.10064 18.35721,1.41511 27.86207,5.00794"
       id="path55"
       style="fill:none;stroke-width:1.57235;stroke-linecap:butt" />
    <path
       stroke="#807d82"
       vector-effect="non-scaling-stroke"
       d="m 255.35302,224.87036 c -20.64497,3.39628 -39.41099,13.04266 -51.44734,30.51934 q -0.2673,0.38523 -0.52674,0 c -11.46244,-17.09932 -30.197,-27.03658 -50.49606,-30.53506"
       id="path56"
       style="fill:none;stroke-width:1.57235;stroke-linecap:butt" />
    <path
       stroke="#403d64"
       vector-effect="non-scaling-stroke"
       d="m 152.88288,224.85464 -5.39317,-0.55032 q -0.4717,-0.0472 -0.40881,0.41667 c 1.45443,11.55678 4.04094,23.08212 6.46237,34.46594 3.26263,15.33829 12.03635,29.59166 22.04436,41.43146 8.16051,9.64638 17.56317,19.33993 28.04289,26.4784 q 0.33019,0.22013 0.65253,-0.008 19.78804,-13.85242 34.01782,-33.35744 14.04896,-19.24558 18.60878,-43.50696 3.38842,-18.04273 4.62271,-25.59002 0.0786,-0.46384 -0.39309,-0.40881 l -5.78625,0.64466"
       id="path57"
       style="fill:none;stroke-width:1.57235;stroke-linecap:butt" />
    <path
       stroke="#beb9d1"
       vector-effect="non-scaling-stroke"
       d="m 152.88288,224.85464 q 1.21857,12.50019 3.412,24.74095 c 4.19032,23.36514 17.69682,42.20191 34.74111,58.02763 4.73277,4.38686 7.78314,7.27212 12.49233,9.94512 a 0.69183463,0.69183463 0 0 0 0.73114,-0.0315 c 10.15739,-6.91834 19.48144,-15.12602 26.90293,-24.92177 q 2.14626,-2.83809 5.53468,-7.20137 c 13.55367,-17.43737 15.97509,-37.48485 18.65595,-60.54339"
       id="path58"
       style="fill:none;stroke-width:1.57235;stroke-linecap:butt" />
    <path
       stroke="#7b1944"
       vector-effect="non-scaling-stroke"
       d="m 274.6615,284.76123 5.30668,-1.65097 q 1.09279,-0.33806 -0.0472,-0.46384 -6.56457,-0.71542 -13.27064,-0.2673"
       id="path59"
       style="fill:none;stroke-width:1.57235;stroke-linecap:butt" />
    <path
       stroke="#160e34"
       vector-effect="non-scaling-stroke"
       d="m 266.65037,282.37912 c -3.81296,-0.14938 -10.5269,-0.88838 -11.17156,1.8082 q -0.0943,0.38523 -0.30661,0.70756 l -3.67144,5.63688 a 1.6902778,1.6902778 0 0 0 0.44812,2.31135 l 6.65891,4.62272 a 0.8254845,0.81762274 39 0 0 1.07706,-0.11007 q 6.57243,-7.10703 14.97665,-12.59453"
       id="path60"
       style="fill:none;stroke-width:1.57235;stroke-linecap:butt" />
    <path
       stroke="#8f2563"
       vector-effect="non-scaling-stroke"
       d="m 266.65037,282.37912 -4.7092,0.0314 a 0.84120801,0.84120801 0 0 0 -0.74686,0.45599 l -3.05037,5.95135 a 0.50315245,0.50315245 0 0 0 0.63681,0.69183 q 7.54728,-3.16043 15.88075,-4.7485"
       id="path61"
       style="fill:none;stroke-width:1.57235;stroke-linecap:butt" />
    <path
       stroke="#160e34"
       vector-effect="non-scaling-stroke"
       d="m 132.1357,284.26594 q 8.61649,6.10072 16.08516,13.23134 a 0.70755814,0.70755814 0 0 0 0.95913,0.0157 l 6.14789,-5.55826 a 1.6116602,1.6273837 55.8 0 0 0.36951,-1.90255 l -3.05036,-6.32085 q -0.18082,-0.36164 -0.56605,-0.47957 -4.47334,-1.32864 -4.2139,1.83965"
       id="path62"
       style="fill:none;stroke-width:1.57235;stroke-linecap:butt" />
    <path
       stroke="#7b1944"
       vector-effect="non-scaling-stroke"
       d="m 147.86708,285.09142 -1.9733,-2.445 q -0.20441,-0.25944 -0.5346,-0.25944 l -17.39021,0.0865 a 0.29088501,0.29088501 0 0 0 -0.0786,0.57391 l 4.24535,1.21857"
       id="path63"
       style="fill:none;stroke-width:1.57235;stroke-linecap:butt" />
    <path
       stroke="#8f2563"
       vector-effect="non-scaling-stroke"
       d="m 147.86708,285.09142 2.10695,4.30038 a 0.46384367,0.46384367 0 0 1 -0.56605,0.63681 l -17.27228,-5.76267"
       id="path64"
       style="fill:none;stroke-width:1.57235;stroke-linecap:butt" />
    <path
       stroke="#7b1944"
       vector-effect="non-scaling-stroke"
       d="m 159.75405,301.37312 q -9.48914,6.27368 -17.48455,14.19047 a 0.34591731,0.33805556 26 0 0 0.20441,0.58177 l 8.46711,1.0692"
       id="path65"
       style="fill:none;stroke-width:1.57235;stroke-linecap:butt" />
    <path
       stroke="#160e34"
       vector-effect="non-scaling-stroke"
       d="m 150.94102,317.21456 q 2.11482,0.91983 4.15887,0.94341"
       id="path66"
       style="fill:none;stroke-width:1.57235;stroke-linecap:butt" />
    <path
       stroke="#7b1944"
       vector-effect="non-scaling-stroke"
       d="m 155.09989,318.15797 q 11.8634,4.12743 22.38243,12.52378"
       id="path67"
       style="fill:none;stroke-width:1.57235;stroke-linecap:butt" />
    <path
       stroke="#160e34"
       vector-effect="non-scaling-stroke"
       d="m 177.48232,330.68175 15.22822,15.18892 q 0.0393,0.0393 0.0943,0.0393 0.1022,0 0.19654,0 a 0.10220284,0.09434109 77.6 0 0 0.0865,-0.14152 q -0.89624,-1.86323 -1.77675,-3.74219 c -1.11637,-2.37425 -2.82237,-4.59913 -4.40259,-7.13848 -4.74064,-7.6259 -10.77847,-15.09457 -16.18735,-22.65758 q -2.58652,-3.62427 -6.73753,-9.26115 -0.42454,-0.56605 -1.27361,-2.8381 -0.15723,-0.43239 -0.58963,-0.2673 -1.46228,0.56605 -2.36639,1.50946"
       id="path68"
       style="fill:none;stroke-width:1.57235;stroke-linecap:butt" />
    <path
       stroke="#8f2563"
       vector-effect="non-scaling-stroke"
       d="m 177.48232,330.68175 q -4.60699,-5.80984 -9.87437,-10.72343 c -3.6793,-3.43559 -7.77528,-5.93563 -12.31937,-7.49226 q -1.50946,-0.52674 -0.72329,-1.91827 l 5.18876,-9.17467"
       id="path69"
       style="fill:none;stroke-width:1.57235;stroke-linecap:butt" />
    <path
       stroke="#8f2563"
       vector-effect="non-scaling-stroke"
       d="m 155.09989,318.15797 -4.15887,-0.94341"
       id="path70"
       style="fill:none;stroke-width:1.57235;stroke-linecap:butt" />
    <path
       stroke="#7b1944"
       vector-effect="non-scaling-stroke"
       d="m 233.84325,328.25247 q 13.98607,-10.66054 31.8244,-12.40585 0.45598,-0.0472 0.11792,-0.35378 -7.97182,-7.13062 -16.85561,-13.12128"
       id="path71"
       style="fill:none;stroke-width:1.57235;stroke-linecap:butt" />
    <path
       stroke="#160e34"
       vector-effect="non-scaling-stroke"
       d="m 248.92996,302.37156 -2.04405,-1.13995 q -1.09279,-0.62108 -1.81607,0.41667 -1.90254,2.73589 -3.76578,5.30669 c -2.68872,3.70289 -6.43878,7.31929 -9.18253,11.25804 q -5.8806,8.41994 -11.8005,18.53016 -0.17296,0.28302 -1.13209,2.54721 -0.48743,1.15567 -1.43084,2.42928 -1.38367,1.86324 -4.40259,7.98754 -0.0472,0.0865 0.0472,0.12579 0.0865,0.0315 0.19655,0.0315 0.0472,0 0.0786,-0.0393 1.66669,-2.33494 3.3491,-4.65416 1.52519,-2.11481 3.69503,-4.18245 c 4.44189,-4.21391 7.72025,-8.05044 13.12127,-12.73605"
       id="path72"
       style="fill:none;stroke-width:1.57235;stroke-linecap:butt" />
    <path
       stroke="#8f2563"
       vector-effect="non-scaling-stroke"
       d="m 248.92996,302.37156 q -0.54246,0.99059 0.30661,2.01261 3.31766,3.96233 5.50323,7.09917 0.2673,0.39309 -0.17296,0.55819 c -8.53786,3.27835 -14.90589,9.35549 -21.2975,15.65275 a 0.36164083,0.36164083 0 0 0 0.055,0.55819 q 0.24371,0.15723 0.51887,0"
       id="path73"
       style="fill:none;stroke-width:1.57235;stroke-linecap:butt" />
    <path
       stroke="#160e34"
       vector-effect="non-scaling-stroke"
       d="m 62.48053,319.88756 q 0.621079,6.24223 6.13217,5.80984 c 3.3098,-0.25944 5.581848,-2.23274 4.945046,-5.74695"
       id="path74"
       style="fill:none;stroke-width:1.57235;stroke-linecap:butt" />
    <path
       stroke="#24378a"
       vector-effect="non-scaling-stroke"
       d="m 73.557746,319.95045 c -0.361641,-4.54409 -4.724916,-7.21709 -8.750136,-4.3161 q -1.706001,1.22643 -2.32708,4.25321"
       id="path75"
       style="fill:none;stroke-width:1.57235;stroke-linecap:butt" />
    <path
       stroke="#3844a9"
       vector-effect="non-scaling-stroke"
       d="m 73.557746,319.95045 q -5.330272,0.56605 -11.077216,-0.0629"
       id="path76"
       style="fill:none;stroke-width:1.57235;stroke-linecap:butt" />
    <path
       stroke="#160e34"
       vector-effect="non-scaling-stroke"
       d="m 334.92186,319.02277 q -0.25943,0.11006 -0.51101,0.87265 -0.14937,0.46384 -0.0472,0.97486 1.02989,5.36172 5.66833,5.34599 3.0818,-0.0157 4.9529,-1.93399 2.16199,-2.20915 1.26575,-5.89632 -0.055,-0.21226 -0.2673,-0.21226 -0.18082,0 -0.21227,0.0472"
       id="path77"
       style="fill:none;stroke-width:1.57235;stroke-linecap:butt" />
    <path
       stroke="#24378a"
       vector-effect="non-scaling-stroke"
       d="m 345.77109,318.22087 c -2.37425,-5.00794 -8.9231,-4.7485 -10.84923,0.8019"
       id="path78"
       style="fill:none;stroke-width:1.57235;stroke-linecap:butt" />
    <path
       stroke="#3844a9"
       vector-effect="non-scaling-stroke"
       d="m 345.77109,318.22087 0.0315,0.58177 q 0.0236,0.41667 -0.38523,0.49529 -5.32241,1.02203 -10.49545,-0.27516"
       id="path79"
       style="fill:none;stroke-width:1.57235;stroke-linecap:butt" />
    <path
       stroke="#160e34"
       vector-effect="non-scaling-stroke"
       d="m 97.976363,369.79399 c -0.44812,4.55196 4.245347,7.5866 8.168367,5.86487 q 4.03308,-1.76103 2.97174,-6.27368"
       id="path80"
       style="fill:none;stroke-width:1.57235;stroke-linecap:butt" />
    <path
       stroke="#24378a"
       vector-effect="non-scaling-stroke"
       d="m 109.11647,369.38518 c -2.01261,-6.51739 -9.81147,-5.80197 -11.140107,0.40881"
       id="path81"
       style="fill:none;stroke-width:1.57235;stroke-linecap:butt" />
    <path
       stroke="#3844a9"
       vector-effect="non-scaling-stroke"
       d="m 109.11647,369.38518 q -5.24379,1.19499 -11.140107,0.40881"
       id="path82"
       style="fill:none;stroke-width:1.57235;stroke-linecap:butt" />
    <path
       stroke="#160e34"
       vector-effect="non-scaling-stroke"
       d="m 298.23891,369.36946 q 0,3.2076 2.31921,5.3853 2.04406,1.91827 4.89002,1.12423 4.41044,-1.24215 5.12586,-6.38374"
       id="path83"
       style="fill:none;stroke-width:1.57235;stroke-linecap:butt" />
    <path
       stroke="#24378a"
       vector-effect="non-scaling-stroke"
       d="m 310.574,369.49525 q -6.00638,-9.48128 -12.33509,-0.12579"
       id="path84"
       style="fill:none;stroke-width:1.57235;stroke-linecap:butt" />
    <path
       stroke="#3844a9"
       vector-effect="non-scaling-stroke"
       d="m 310.574,369.49525 q -6.7218,1.42297 -12.33509,-0.12579"
       id="path85"
       style="fill:none;stroke-width:1.57235;stroke-linecap:butt" />
    <path
       stroke="#807d82"
       vector-effect="non-scaling-stroke"
       d="m 209.69194,283.14957 c 3.37269,-7.9561 10.26745,-9.11178 17.90122,-10.11808 11.00646,-1.44657 17.63392,-12.57881 19.86666,-22.46104 q 0.66825,-2.95602 3.52206,-12.32724 0.22799,-0.73114 -0.31447,-0.18868 c -1.53304,1.52518 -3.08181,3.45131 -4.63843,4.5441 -4.30038,3.0425 -9.98444,3.92301 -14.843,5.90417 -15.11816,6.18721 -20.00031,19.45785 -21.88713,34.54457 a 0.20440568,0.20440568 0 0 0 0.39309,0.1022"
       id="path86"
       style="fill:none;stroke-width:1.57235;stroke-linecap:butt" />
    <path
       stroke="#807d82"
       vector-effect="non-scaling-stroke"
       d="m 191.35832,275.02051 q 4.47334,2.58652 7.27212,7.2564 a 0.33805556,0.33805556 0 0 0 0.62108,-0.24371 c -3.37269,-15.22036 -7.4215,-28.27874 -23.01922,-33.8999 -6.59602,-2.38211 -13.07411,-2.99533 -17.9877,-9.50486 a 0.24371447,0.24371447 0 0 0 -0.4324,0.17296 q 1.40725,10.64482 6.1872,20.15754 c 3.69503,7.35074 8.34133,12.17 16.15591,14.07255 2.7752,0.67611 8.36491,0.34591 11.20301,1.98902"
       id="path87"
       style="fill:none;stroke-width:1.57235;stroke-linecap:butt" />
    <path
       fill="#020115"
       d="m 238.89836,337.54507 a 0.1650969,0.1650969 0 0 0 0.0629,0.3066 c 4.44189,0.5346 11.80049,2.20916 14.58356,6.09287 a 1.2421576,1.2500194 66.2 0 1 -0.76259,1.94971 c -14.27696,2.9403 -26.06959,8.31774 -36.0383,19.65439 q -6.85545,7.79101 -11.88698,16.49397 a 0.77831395,0.77831395 0 0 1 -1.33649,0.0157 c -10.59765,-17.27228 -26.6435,-34.15933 -48.15327,-35.89678 a 1.1714018,1.1714018 0 0 1 -0.85693,-1.84751 c 3.09753,-4.35541 10.1967,-5.86487 15.14961,-6.02211 q 0.52674,-0.0157 0.0943,-0.30661 -18.90753,-13.11341 -42.02896,-12.92472 -0.19654,0 -0.12578,-0.18082 4.52051,-11.12439 12.68887,-19.83522 a 0.67611111,0.68397287 43.3 0 0 -0.0236,-0.95913 q -14.3005,-13.76592 -33.77407,-17.97982 a 0.47170543,0.47170543 0 0 0 -0.57391,0.45598 v 69.76523 q 0,0.40881 0.40881,0.45599 3.12112,0.33805 4.72491,1.63524 10.28318,8.30202 4.7092,18.61664 c -2.88527,5.33027 -7.74383,8.08189 -13.75808,7.38219 -14.654312,-1.71386 -17.075734,-22.3667 -3.113253,-27.41395 a 0.51887597,0.53459948 78.8 0 0 0.345917,-0.50315 L 99.077009,197.73158 q 0,-0.36164 -0.361641,-0.33806 -13.51436,0.91197 -21.022338,11.21087 c -7.38219,10.11808 -6.312991,22.0994 -5.566124,36.09332 q 0.02359,0.40882 0.330194,0.66825 2.397836,2.06765 2.665135,3.01892 1.470149,5.22807 -2.728029,7.9561 -0.306609,0.2044 -0.306609,0.56604 l 0.0079,49.51335 q 0,0.3695 0.345917,0.51101 10.55834,4.30038 9.308321,15.40119 c -1.147817,10.14166 -13.278508,15.84144 -21.549077,9.92153 q -4.976492,-3.56923 -6.171479,-9.93726 -1.74531,-9.31618 7.657351,-14.75652 c 0.683973,-0.40095 2.067643,-0.64466 2.932436,-1.09278 a 0.61321705,0.61321705 0 0 0 0.330194,-0.54246 l -0.08648,-53.79014 q -0.0079,-0.37737 -0.243714,-0.66825 -0.511014,-0.62894 -1.061337,-1.18713 -23.019263,-23.63244 -17.23301,-55.16595 c 3.639993,-19.85093 17.201525,-36.91881 34.811861,-46.40009 26.81645,-14.43418 55.40967,-7.92464 79.30155,8.02686 q 0.42453,0.28302 0.61321,-0.18869 l 34.56815,-83.161657 q 0.14151,-0.338056 -0.11006,-0.597494 c -0.98272,-1.022028 -2.27205,-2.020471 -3.03464,-3.066085 -12.94046,-17.688953 13.97034,-34.497391 24.2771,-16.399626 q 5.96708,10.479723 -4.12742,19.489296 -0.34592,0.314471 -0.1651,0.746867 l 34.65463,82.878639 q 0.1651,0.39309 0.51101,0.14937 c 27.46112,-19.82734 63.60948,-22.58682 90.64606,-0.25157 28.84479,23.84471 34.08858,68.33439 4.63058,94.57693 a 1.3364987,1.3129134 69.4 0 0 -0.44026,0.99059 l 0.12579,54.12033 q 0,0.30661 0.29874,0.37737 c 12.27221,3.05822 16.29743,18.19996 5.15732,25.72367 -10.22815,6.91048 -23.2315,-1.74531 -21.80852,-13.82884 q 0.91983,-7.82244 8.95454,-11.39168 0.35378,-0.15724 0.34592,-0.5346 l -0.23585,-49.45045 q 0,-0.39309 -0.28302,-0.66039 -5.14946,-4.86643 -0.1651,-10.25959 c 1.50946,-1.63525 1.34436,-6.18721 1.46229,-8.3256 0.42453,-7.75956 0.17295,-16.06157 -2.92458,-22.87772 q -6.87117,-15.1496 -24.30069,-17.76757 -0.37736,-0.055 -0.37736,0.33019 l -0.11007,158.93329 q 0,0.34591 0.31447,0.47956 c 10.18884,4.20604 12.82253,16.28956 4.57554,23.9705 -6.87117,6.38375 -17.20938,4.51265 -21.76134,-3.83654 -4.55196,-8.34132 0.11793,-17.85405 9.15895,-20.1654 a 1.0456137,1.0534755 82.7 0 0 0.78617,-1.01417 l 0.0943,-68.92402 a 0.47170543,0.46384367 85.1 0 0 -0.54246,-0.46385 q -20.11037,3.34125 -34.11216,17.94053 -0.25158,0.25944 0,0.51102 8.46711,8.53786 13.66373,19.33992 0.15724,0.33805 0.0786,0.55032 a 0.6603876,0.66824935 10.9 0 1 -0.62894,0.4324 q -14.78797,-0.0865 -28.19226,5.37744 c -4.36328,1.77676 -8.87592,4.48906 -13.137,7.052 z M 197.82854,61.102106 c 2.14626,7.445084 12.15428,8.388495 12.12283,-1.250019 q 0.12579,-5.479645 -4.77995,-5.660465 -7.24854,-0.275162 -7.34288,6.910484 z m 5.74695,20.98303 -32.87787,79.671044 a 1.0220284,1.0063049 31.3 0 0 0.29088,1.16354 q 9.55204,7.94823 18.54589,16.82416 3.37269,3.33338 13.06624,16.25811 0.35378,1.37581 1.29719,2.02047 0.34592,0.23586 0.64466,-0.0629 0.87266,-0.88052 1.83179,-2.38998 12.10711,-19.07262 30.86526,-32.72063 a 0.97485788,0.98271964 62 0 0 0.34592,-1.11637 q -4.05667,-11.3052 -8.87592,-22.53178 C 222.59308,124.96316 217.46721,112.69882 211.74385,99.491066 209.36174,94.011422 207.129,87.698431 204.64469,81.809975 a 0.55818475,0.56604651 62.1 0 0 -0.82549,-0.251577 q -0.11006,0.07076 -0.24371,0.526738 z m -118.405929,75.166254 -5.298824,3.9466 -1.25002,0.99845 q -0.511014,-0.0314 -0.888378,0.26729 -9.426247,7.43723 -15.542694,17.69682 -0.40095,0.68397 -1.43084,3.05036 -0.511014,1.18713 -1.446563,3.0425 -7.059858,14.04896 -3.262629,30.12626 l 5.047248,14.53638 a 0.25943798,0.25943798 0 0 0 0.487429,0.008 q 0.157235,-0.40095 0.07075,-1.00631 l -0.283023,-8.30988 q -0.01572,-0.38522 0.125788,-0.739 c 0.58177,-1.47801 0.455982,-3.24691 0.762591,-4.45762 q 1.43084,-5.77839 4.575542,-10.81778 c 0.896241,-1.44656 1.611661,-4.151 2.421422,-5.03152 q 11.564644,-12.61812 27.87779,-14.1433 c 18.65595,-1.74531 37.25687,10.14953 47.58721,25.11831 a 1.391531,1.3679457 73.9 0 0 1.04562,0.58963 c 18.45154,1.16354 36.27415,7.40578 50.59041,19.33207 q 1.47014,1.23429 4.76422,3.27049 l 2.27205,2.74375 q 0.2673,0.32233 0.68397,0.22799 0.56605,-0.12579 0.77831,-0.79404 0.74687,0.055 1.79249,-0.76259 c 4.16673,-3.26263 8.34918,-7.03627 12.50805,-9.68568 q 11.39955,-7.24854 24.33214,-11.08508 c 6.19506,-1.83965 13.3414,-2.72803 20.0632,-3.63999 a 2.1069509,2.0676421 12.9 0 0 1.44657,-0.88838 c 5.32241,-7.80673 13.19989,-14.88231 21.26605,-19.20627 13.89959,-7.45295 32.05238,-7.97969 45.14221,2.27204 12.12283,9.50487 16.53327,23.79754 14.66218,38.66412 a 0.35473865,0.35473865 0 0 0 0.69183,0.15724 l 3.412,-10.05519 c 4.59127,-15.76282 2.673,-33.72694 -7.90892,-46.57305 l -1.64311,-2.6101 q -3.05823,-5.43247 -7.76742,-9.85078 c -1.99688,-1.8711 -3.64785,-3.03464 -6.40733,-5.14159 q -3.52207,-2.69658 -7.6888,-4.25321 c -1.8711,-0.69184 -3.6793,-0.42454 -5.68405,-0.52674 q -12.35082,-3.6793 -23.78181,-2.31922 -6.43092,0.76259 -16.50183,3.65572 -3.5771,0.0708 -6.70608,1.87896 -0.50315,0.28302 -1.26574,0.49529 c -1.12424,0.31447 -1.96544,1.01417 -3.13685,1.34436 q -3.53779,0.97486 -5.3224,4.40258 l -8.78945,5.77053 q -15.66062,11.03005 -27.24885,26.68281 c -7.31143,9.87437 -12.3744,20.73931 -15.86503,32.46906 a 0.29088501,0.29088501 0 0 1 -0.55818,0 Q 193.14293,194.46122 164.9428,172.84925 l -12.29578,-8.88379 q -3.05823,-3.95446 -8.01113,-5.51895 -1.47015,-0.46385 -2.84596,-1.4387 -1.94971,-1.37581 -4.03308,-1.84752 -1.72959,-0.38522 -3.07395,-0.9041 -1.62738,-0.62894 -3.0425,-0.78618 -2.48431,-0.26729 -3.3098,-0.89624 -2.76733,-2.10695 -4.33182,-2.35066 -5.26738,-0.80976 -13.71091,-0.6368 -4.08025,0.0865 -8.24698,1.04561 -4.551961,1.04561 -8.097613,2.04406 -4.842842,1.36794 -8.773721,4.57554 z m 47.618669,59.59212 c -5.62116,-9.10392 -15.85717,-16.39963 -26.5413,-19.06476 q -0.40095,-0.0943 -0.40095,0.31447 l 0.0708,81.78586 q 0,1.706 1.4387,0.79403 c 11.56465,-7.34288 23.89975,-9.09605 37.32763,-9.0646 q 0.44812,0 0.33019,-0.4324 c -2.38211,-8.9624 -4.81139,-17.97984 -6.37588,-27.02086 q -1.50946,-8.77372 -2.82237,-17.58675 c -0.51888,-3.47489 -1.42298,-7.11489 -3.02678,-9.72499 z m 158.40654,59.31696 c 3.03464,1.14781 6.58029,3.12898 9.95299,4.70133 q 0.5739,0.25943 0.5739,-0.36951 l -0.0236,-82.36762 q 0,-0.39309 -0.38523,-0.29875 c -13.12913,3.27049 -26.01455,13.46719 -28.36522,27.39822 q -3.05036,18.0506 -7.02055,35.93609 c -0.66038,2.98747 -2.04405,6.28941 -2.94029,9.48914 q -0.12579,0.44812 0.34591,0.50316 c 9.56776,1.10064 18.35721,1.41511 27.86207,5.00794 z m -35.84175,-51.29011 c -20.64497,3.39628 -39.41099,13.04266 -51.44734,30.51934 q -0.2673,0.38523 -0.52674,0 c -11.46244,-17.09932 -30.197,-27.03658 -50.49606,-30.53506 l -5.39317,-0.55032 q -0.4717,-0.0472 -0.40881,0.41667 c 1.45443,11.55678 4.04094,23.08212 6.46237,34.46594 3.26263,15.33829 12.03635,29.59166 22.04436,41.43146 8.16051,9.64638 17.56317,19.33993 28.04289,26.4784 q 0.33019,0.22013 0.65253,-0.008 19.78804,-13.85242 34.01782,-33.35744 14.04896,-19.24558 18.60878,-43.50696 3.38842,-18.04273 4.62271,-25.59002 0.0786,-0.46384 -0.39309,-0.40881 z m 19.30848,59.89087 5.30668,-1.65097 q 1.09279,-0.33806 -0.0472,-0.46384 -6.56457,-0.71542 -13.27064,-0.2673 c -3.81296,-0.14938 -10.5269,-0.88838 -11.17156,1.8082 q -0.0943,0.38523 -0.30661,0.70756 l -3.67144,5.63688 a 1.6902778,1.6902778 0 0 0 0.44812,2.31135 l 6.65891,4.62272 a 0.8254845,0.81762274 39 0 0 1.07706,-0.11007 q 6.57243,-7.10703 14.97665,-12.59453 z m -142.5258,-0.49529 q 8.61649,6.10072 16.08516,13.23134 a 0.70755814,0.70755814 0 0 0 0.95913,0.0157 l 6.14789,-5.55826 a 1.6116602,1.6273837 55.8 0 0 0.36951,-1.90255 l -3.05036,-6.32085 q -0.18082,-0.36164 -0.56605,-0.47957 -4.47334,-1.32864 -4.2139,1.83965 l -1.9733,-2.445 q -0.20441,-0.25944 -0.5346,-0.25944 l -17.39021,0.0865 a 0.29088501,0.29088501 0 0 0 -0.0786,0.57391 z m 27.61835,17.10718 q -9.48914,6.27368 -17.48455,14.19047 a 0.34591731,0.33805556 26 0 0 0.20441,0.58177 l 8.46711,1.0692 q 2.11482,0.91983 4.15887,0.94341 11.8634,4.12743 22.38243,12.52378 l 15.22822,15.18892 q 0.0393,0.0393 0.0943,0.0393 0.1022,0 0.19654,0 a 0.10220284,0.09434109 77.6 0 0 0.0865,-0.14152 q -0.89624,-1.86323 -1.77675,-3.74219 c -1.11637,-2.37425 -2.82237,-4.59913 -4.40259,-7.13848 -4.74064,-7.6259 -10.77847,-15.09457 -16.18735,-22.65758 q -2.58652,-3.62427 -6.73753,-9.26115 -0.42454,-0.56605 -1.27361,-2.8381 -0.15723,-0.43239 -0.58963,-0.2673 -1.46228,0.56605 -2.36639,1.50946 z m 74.0892,26.87935 q 13.98607,-10.66054 31.8244,-12.40585 0.45598,-0.0472 0.11792,-0.35378 -7.97182,-7.13062 -16.85561,-13.12128 l -2.04405,-1.13995 q -1.09279,-0.62108 -1.81607,0.41667 -1.90254,2.73589 -3.76578,5.30669 c -2.68872,3.70289 -6.43878,7.31929 -9.18253,11.25804 q -5.8806,8.41994 -11.8005,18.53016 -0.17296,0.28302 -1.13209,2.54721 -0.48743,1.15567 -1.43084,2.42928 -1.38367,1.86324 -4.40259,7.98754 -0.0472,0.0865 0.0472,0.12579 0.0865,0.0315 0.19655,0.0315 0.0472,0 0.0786,-0.0393 1.66669,-2.33494 3.3491,-4.65416 1.52519,-2.11481 3.69503,-4.18245 c 4.44189,-4.21391 7.72025,-8.05044 13.12127,-12.73605 z M 62.48053,319.88756 q 0.621079,6.24223 6.13217,5.80984 c 3.3098,-0.25944 5.581848,-2.23274 4.945046,-5.74695 -0.361641,-4.54409 -4.724916,-7.21709 -8.750136,-4.3161 q -1.706001,1.22643 -2.32708,4.25321 z m 272.44133,-0.86479 q -0.25943,0.11006 -0.51101,0.87265 -0.14937,0.46384 -0.0472,0.97486 1.02989,5.36172 5.66833,5.34599 3.0818,-0.0157 4.9529,-1.93399 2.16199,-2.20915 1.26575,-5.89632 -0.055,-0.21226 -0.2673,-0.21226 -0.18082,0 -0.21227,0.0472 c -2.37425,-5.00794 -8.9231,-4.7485 -10.84923,0.8019 z M 97.976363,369.79399 c -0.44812,4.55196 4.245347,7.5866 8.168367,5.86487 q 4.03308,-1.76103 2.97174,-6.27368 c -2.01261,-6.51739 -9.81147,-5.80197 -11.140107,0.40881 z m 200.262547,-0.42453 q 0,3.2076 2.31921,5.3853 2.04406,1.91827 4.89002,1.12423 4.41044,-1.24215 5.12586,-6.38374 -6.00638,-9.48128 -12.33509,-0.12579 z"
       id="path95"
       style="stroke-width:0.786176" />
    <path
       fill="#456dff"
       d="m 209.95137,59.852087 q -2.09909,0.165097 -4.13528,0.196544 c -2.96388,0.03931 -5.20448,0.518876 -7.98755,1.053475 q 0.0943,-7.185646 7.34288,-6.910484 4.90574,0.18082 4.77995,5.660465 z"
       id="path96"
       style="stroke-width:0.786176" />
    <path
       fill="#2a1a53"
       d="m 209.95137,59.852087 c 0.0314,9.638514 -9.97657,8.695103 -12.12283,1.250019 2.78307,-0.534599 5.02367,-1.014166 7.98755,-1.053475 q 2.03619,-0.03145 4.13528,-0.196544 z"
       id="path97"
       style="stroke-width:0.786176" />
    <path
       fill="#2a1a53"
       d="m 202.60063,196.00199 q 0.76259,0.11007 0.76259,-1.2343 -0.0786,-29.24573 0.64466,-78.16944 c 0.13365,-9.33977 1.28933,-22.476764 0.37737,-33.978514 q -0.0315,-0.361641 -0.20441,-0.471706 -0.22013,-0.149373 -0.60535,-0.06289 0.13365,-0.455982 0.24371,-0.526738 a 0.55818475,0.56604651 62.1 0 1 0.82549,0.251577 c 2.48431,5.888456 4.71705,12.201447 7.09916,17.681091 5.72336,13.20775 10.84923,25.47209 16.96568,39.70973 q 4.81925,11.22658 8.87592,22.53179 a 0.97485788,0.98271964 62 0 1 -0.34592,1.11637 q -18.75815,13.64801 -30.86526,32.72063 -0.95913,1.50946 -1.83179,2.38998 -0.29874,0.29875 -0.64466,0.0629 -0.94341,-0.64466 -1.29719,-2.02047 z"
       id="path98"
       style="stroke-width:0.786176" />
    <path
       fill="#4445c3"
       d="m 203.57549,82.085136 q 0.38522,-0.08648 0.60535,0.06289 0.17296,0.110065 0.20441,0.471706 c 0.91196,11.50175 -0.24372,24.638748 -0.37737,33.978518 q -0.72328,48.92371 -0.64466,78.16944 0,1.34437 -0.76259,1.2343 -9.69355,-12.92473 -13.06624,-16.25811 -8.99385,-8.87593 -18.54589,-16.82416 a 1.0220284,1.0063049 31.3 0 1 -0.29088,-1.16354 z"
       id="path99"
       style="stroke-width:0.786176" />
    <path
       fill="#2a1a53"
       d="m 152.64703,163.96533 q -14.37916,-8.73441 -28.05862,-11.71402 -19.54433,-4.26107 -38.30248,5.07084 l -1.116369,-0.0708 q 3.930879,-3.2076 8.773721,-4.57554 3.545652,-0.99845 8.097608,-2.04406 4.16673,-0.95913 8.24698,-1.04561 8.44353,-0.17296 13.71091,0.6368 1.56449,0.24371 4.33183,2.35066 0.82548,0.62895 3.3098,0.89624 1.41512,0.15724 3.0425,0.78618 1.34436,0.51888 3.07395,0.9041 2.08336,0.47171 4.03308,1.84752 1.3758,0.97485 2.84596,1.4387 4.9529,1.56449 8.01113,5.51895 z"
       id="path102"
       style="stroke-width:0.786176" />
    <path
       fill="#8cf9fc"
       d="m 152.64703,163.96533 12.29578,8.88379 q -0.17295,0.4717 -0.2673,0.40881 -13.04265,-9.1275 -27.86993,-14.93734 -13.56939,-5.31455 -27.35891,-4.55196 c -16.800578,0.91983 -30.542929,8.9231 -41.455048,21.65914 q -0.102203,0.12579 -0.110065,-0.0393 v -0.40095 q -0.0079,-0.18082 0.08648,-0.33019 3.812953,-6.19506 8.663657,-10.51903 1.580213,-1.40726 1.989024,-1.94185 l 1.25002,-0.99845 6.415193,-3.87584 q 18.758149,-9.33191 38.302479,-5.07084 13.67946,2.97961 28.05862,11.71402 z"
       id="path103"
       style="stroke-width:0.786176" />
    <path
       fill="#8cf9fc"
       d="m 313.07404,153.72146 q 11.21873,4.07239 19.89811,12.31151 3.75792,3.56924 7.64949,7.46081 l 1.64311,2.6101 0.18868,1.09279 a 0.39308786,0.39308786 0 0 1 -0.68398,0.33019 c -4.6856,-5.18876 -9.90581,-10.67626 -15.43262,-14.43418 q -18.93112,-12.86184 -42.54783,-8.18409 -17.02857,3.36483 -29.90613,11.26589 -3.93874,2.42143 -6.31299,2.7752 l 8.78945,-5.77053 q 8.1605,-4.75636 16.43107,-8.12119 10.07091,-2.89313 16.50183,-3.65572 11.43099,-1.36008 23.78181,2.31922 z"
       id="path104"
       style="stroke-width:0.786176" />
    <path
       fill="#456dff"
       d="m 164.94281,172.84912 q 28.20013,21.61197 38.95501,55.25243 a 0.29088501,0.29088501 0 0 0 0.55818,0 c 3.49063,-11.72975 8.5536,-22.59469 15.86503,-32.46906 q 11.58823,-15.65276 27.24885,-26.68281 2.37425,-0.35377 6.31299,-2.7752 12.87756,-7.90106 29.90613,-11.26589 23.61671,-4.67775 42.54783,8.18409 c 5.52681,3.75792 10.74702,9.24542 15.43262,14.43418 a 0.39308786,0.39308786 0 0 0 0.68398,-0.33019 l -0.18868,-1.09279 c 10.58192,12.84611 12.50019,30.81023 7.90892,46.57305 q -0.55032,0.38523 -0.43239,-0.8019 c 0.91196,-8.97812 0.16509,-18.93111 -3.60855,-26.96582 -4.07239,-8.67152 -11.39169,-16.0144 -19.8588,-20.41699 -10.9986,-5.71549 -24.74881,-5.99852 -36.54145,-2.53934 q -6.17934,1.81606 -14.52066,5.96707 c -14.33985,7.13847 -29.22215,18.11349 -40.68459,27.50829 q -16.90278,13.86028 -29.67028,31.47847 -0.21226,0.66825 -0.77831,0.79404 -0.41667,0.0943 -0.68397,-0.22799 l -2.27205,-2.74375 q -4.7485,-7.18565 -7.80672,-10.41683 -22.27236,-23.46735 -49.63914,-40.62956 c -14.55211,-9.11964 -32.55554,-16.7141 -50.110842,-13.06624 -19.253444,4.00949 -32.712772,18.82104 -34.866893,38.30248 l -0.314471,10.91998 a 0.35377907,0.35377907 0 0 1 -0.699696,0.0629 q -0.408811,-1.83179 -1.635245,-3.52206 -3.797229,-16.0773 3.262629,-30.12626 0.935549,-1.85537 1.446563,-3.0425 1.02989,-2.36639 1.43084,-3.05036 6.116447,-10.25959 15.542694,-17.69682 0.377364,-0.29874 0.888378,-0.26729 -0.408811,0.53459 -1.989024,1.94185 -4.850704,4.32397 -8.663657,10.51903 -0.09434,0.14937 -0.08648,0.33019 v 0.40095 q 0.0079,0.1651 0.110065,0.0393 c 10.912119,-12.73604 24.65447,-20.73931 41.455049,-21.65914 q 13.78952,-0.76259 27.35891,4.55196 14.82728,5.80984 27.86993,14.93734 0.0944,0.0629 0.2673,-0.40881 z"
       id="path105"
       style="stroke-width:0.786176" />
    <path
       fill="#2a1a53"
       d="m 313.07404,153.72146 c 2.00475,0.1022 3.81295,-0.1651 5.68405,0.52674 q 4.16673,1.55663 7.6888,4.25321 c 2.75948,2.10695 4.41045,3.27049 6.40733,5.14159 q 4.70919,4.41831 7.76742,9.85078 -3.89157,-3.89157 -7.64949,-7.46081 -8.67938,-8.23912 -19.89811,-12.31151 z"
       id="path106"
       style="stroke-width:0.786176" />
    <path
       fill="#2a1a53"
       d="m 272.7904,155.05796 q -8.27057,3.36483 -16.43107,8.12119 1.78461,-3.42772 5.3224,-4.40258 c 1.17141,-0.33019 2.01261,-1.02989 3.13685,-1.34436 q 0.76259,-0.21227 1.26574,-0.49529 3.12898,-1.8082 6.70608,-1.87896 z"
       id="path107"
       style="stroke-width:0.786176" />
    <path
       fill="#456dff"
       d="m 85.169561,157.25139 1.116369,0.0708 -6.415193,3.87584 z"
       id="path108"
       style="stroke-width:0.786176" />
    <path
       fill="#2a1a53"
       d="m 201.12262,234.72901 q -3.29408,-2.0362 -4.76422,-3.27049 c -14.31626,-11.92629 -32.13887,-18.16853 -50.59041,-19.33207 a 1.391531,1.3679457 73.9 0 1 -1.04562,-0.58963 C 134.39202,196.56804 115.7911,184.6732 97.135155,186.41851 q -16.313146,1.52518 -27.87779,14.1433 c -0.809761,0.88052 -1.525181,3.58496 -2.421422,5.03152 q -3.144702,5.03939 -4.575542,10.81778 c -0.306609,1.21071 -0.180821,2.97961 -0.762591,4.45762 q -0.141511,0.35378 -0.125788,0.739 l 0.283023,8.30988 q -0.322332,-2.58652 -1.124231,-5.08656 -1.037752,-3.23904 -1.242157,-5.0158 -0.636803,-5.41675 -0.589632,-10.89639 c 2.154121,-19.48144 15.613449,-34.29299 34.866893,-38.30248 17.555302,-3.64786 35.558732,3.9466 50.110842,13.06624 q 27.36678,17.16221 49.63914,40.62956 3.05822,3.23118 7.80672,10.41683 z"
       id="path109"
       style="stroke-width:0.786176" />
    <path
       fill="#2a1a53"
       d="m 350.17367,222.67693 -3.412,10.05519 a 0.35473865,0.35473865 0 0 1 -0.69183,-0.15724 c 1.87109,-14.86658 -2.53935,-29.15925 -14.66218,-38.66412 -13.08983,-10.25173 -31.24262,-9.72499 -45.14221,-2.27204 -8.06616,4.32396 -15.94364,11.39954 -21.26605,19.20627 a 2.1069509,2.0676421 12.9 0 1 -1.44657,0.88838 c -6.7218,0.91196 -13.86814,1.80034 -20.0632,3.63999 q -12.93259,3.83654 -24.33214,11.08508 c -4.15887,2.64941 -8.34132,6.42305 -12.50805,9.68568 q -1.04562,0.81763 -1.79249,0.76259 12.7675,-17.61819 29.67028,-31.47847 c 11.46244,-9.3948 26.34474,-20.36982 40.68459,-27.50829 q 8.34132,-4.15101 14.52066,-5.96707 c 11.79264,-3.45918 25.54285,-3.17615 36.54145,2.53934 8.46711,4.40259 15.78641,11.74547 19.8588,20.41699 3.77364,8.03471 4.52051,17.9877 3.60855,26.96582 q -0.11793,1.18713 0.43239,0.8019 z"
       id="path110"
       style="stroke-width:0.786176" />
    <path
       fill="#4445c3"
       d="m 58.699025,208.91886 q -0.04717,5.47964 0.589632,10.89639 0.204405,1.77676 1.242157,5.0158 0.801899,2.50004 1.124231,5.08656 0.08648,0.60536 -0.07075,1.00631 a 0.25943798,0.25943798 0 0 1 -0.487429,-0.008 l -5.047248,-14.53638 q 1.226434,1.69027 1.635245,3.52206 a 0.35377907,0.35377907 0 0 0 0.699696,-0.0629 z"
       id="path113"
       style="stroke-width:0.786176" />
    <path
       fill="#7e79b2"
       d="m 152.88288,224.85464 q 1.21857,12.50019 3.412,24.74095 c 4.19032,23.36514 17.69682,42.20191 34.74111,58.02763 4.73277,4.38686 7.78314,7.27212 12.49233,9.94512 a 0.69183463,0.69183463 0 0 0 0.73114,-0.0315 c 10.15739,-6.91834 19.48144,-15.12602 26.90293,-24.92177 q 2.14626,-2.83809 5.53468,-7.20137 c 13.55367,-17.43737 15.97509,-37.48485 18.65595,-60.54339 l 5.78625,-0.64466 q 0.47171,-0.055 0.39309,0.40881 -1.23429,7.54729 -4.62271,25.59002 -4.55982,24.26138 -18.60878,43.50696 -14.22978,19.50502 -34.01782,33.35744 -0.32234,0.22799 -0.65253,0.008 c -10.47972,-7.13847 -19.88238,-16.83202 -28.04289,-26.4784 -10.00801,-11.8398 -18.78173,-26.09317 -22.04436,-41.43146 -2.42143,-11.38382 -5.00794,-22.90916 -6.46237,-34.46594 q -0.0629,-0.46384 0.40881,-0.41667 z"
       id="path114"
       style="stroke-width:0.786176" />
    <path
       fill="#fdf8ef"
       d="m 152.88288,224.85464 c 20.29906,3.49848 39.03362,13.43574 50.49606,30.53506 q 0.25944,0.38523 0.52674,0 c 12.03635,-17.47668 30.80237,-27.12306 51.44734,-30.51934 -2.68086,23.05854 -5.10228,43.10602 -18.65595,60.54339 q -3.38842,4.36328 -5.53468,7.20137 c -7.42149,9.79575 -16.74554,18.00343 -26.90293,24.92177 a 0.69183463,0.69183463 0 0 1 -0.73114,0.0315 c -4.70919,-2.673 -7.75956,-5.55826 -12.49233,-9.94512 -17.04429,-15.82572 -30.55079,-34.66249 -34.74111,-58.02763 q -2.19343,-12.24076 -3.412,-24.74095 z m 56.80906,58.29493 c 3.37269,-7.9561 10.26745,-9.11178 17.90122,-10.11808 11.00646,-1.44657 17.63392,-12.57881 19.86666,-22.46104 q 0.66825,-2.95602 3.52206,-12.32724 0.22799,-0.73114 -0.31447,-0.18868 c -1.53304,1.52518 -3.08181,3.45131 -4.63843,4.5441 -4.30038,3.0425 -9.98444,3.92301 -14.843,5.90417 -15.11816,6.18721 -20.00031,19.45785 -21.88713,34.54457 a 0.20440568,0.20440568 0 0 0 0.39309,0.1022 z m -18.33362,-8.12906 q 4.47334,2.58652 7.27212,7.2564 a 0.33805556,0.33805556 0 0 0 0.62108,-0.24371 c -3.37269,-15.22036 -7.4215,-28.27874 -23.01922,-33.8999 -6.59602,-2.38211 -13.07411,-2.99533 -17.9877,-9.50486 a 0.24371447,0.24371447 0 0 0 -0.4324,0.17296 q 1.40725,10.64482 6.1872,20.15754 c 3.69503,7.35074 8.34133,12.17 16.15591,14.07255 2.7752,0.67611 8.36491,0.34591 11.20301,1.98902 z"
       id="path115"
       style="stroke-width:0.786176" />
    <path
       fill="#020115"
       d="m 227.59316,273.03149 c -7.63377,1.0063 -14.52853,2.16198 -17.90122,10.11808 a 0.20440568,0.20440568 0 0 1 -0.39309,-0.1022 c 1.88682,-15.08672 6.76897,-28.35736 21.88713,-34.54457 4.85856,-1.98116 10.54262,-2.86167 14.843,-5.90417 1.55662,-1.09279 3.10539,-3.01892 4.63843,-4.5441 q 0.54246,-0.54246 0.31447,0.18868 -2.85381,9.37122 -3.52206,12.32724 c -2.23274,9.88223 -8.8602,21.01447 -19.86666,22.46104 z"
       id="path116"
       style="stroke-width:0.786176" />
    <path
       fill="#020115"
       d="m 191.35832,275.02051 c -2.8381,-1.64311 -8.42781,-1.31291 -11.20301,-1.98902 -7.81458,-1.90255 -12.46088,-6.72181 -16.15591,-14.07255 q -4.77995,-9.51272 -6.1872,-20.15754 a 0.24371447,0.24371447 0 0 1 0.4324,-0.17296 c 4.91359,6.50953 11.39168,7.12275 17.9877,9.50486 15.59772,5.62116 19.64653,18.67954 23.01922,33.8999 a 0.33805556,0.33805556 0 0 1 -0.62108,0.24371 q -2.79878,-4.66988 -7.27212,-7.2564 z"
       id="path117"
       style="stroke-width:0.786176" />
    <path
       fill="#2a1a53"
       d="m 266.65037,282.37912 -4.7092,0.0314 a 0.84120801,0.84120801 0 0 0 -0.74686,0.45599 l -3.05037,5.95135 a 0.50315245,0.50315245 0 0 0 0.63681,0.69183 q 7.54728,-3.16043 15.88075,-4.7485 -8.40422,5.4875 -14.97665,12.59453 a 0.8254845,0.81762274 39 0 1 -1.07706,0.11007 l -6.65891,-4.62272 a 1.6902778,1.6902778 0 0 1 -0.44812,-2.31135 l 3.67144,-5.63688 q 0.21227,-0.32233 0.30661,-0.70756 c 0.64466,-2.69658 7.3586,-1.95758 11.17156,-1.8082 z"
       id="path118"
       style="stroke-width:0.786176" />
    <path
       fill="#f43073"
       d="m 266.65037,282.37912 q 6.70607,-0.44812 13.27064,0.2673 1.13996,0.12578 0.0472,0.46384 l -5.30668,1.65097 q -8.33347,1.58807 -15.88075,4.7485 a 0.50315245,0.50315245 0 0 1 -0.63681,-0.69183 l 3.05037,-5.95135 a 0.84120801,0.84120801 0 0 1 0.74686,-0.45599 z"
       id="path119"
       style="stroke-width:0.786176" />
    <path
       fill="#f43073"
       d="m 147.86708,285.09142 2.10695,4.30038 a 0.46384367,0.46384367 0 0 1 -0.56605,0.63681 l -17.27228,-5.76267 -4.24535,-1.21857 a 0.29088501,0.29088501 0 0 1 0.0786,-0.57391 l 17.39021,-0.0865 q 0.33019,0 0.5346,0.25944 z"
       id="path120"
       style="stroke-width:0.786176" />
    <path
       fill="#2a1a53"
       d="m 132.1357,284.26594 17.27228,5.76267 a 0.46384367,0.46384367 0 0 0 0.56605,-0.63681 l -2.10695,-4.30038 q -0.25944,-3.16829 4.2139,-1.83965 0.38523,0.11793 0.56605,0.47957 l 3.05036,6.32085 a 1.6116602,1.6273837 55.8 0 1 -0.36951,1.90255 l -6.14789,5.55826 a 0.70755814,0.70755814 0 0 1 -0.95913,-0.0157 q -7.46867,-7.13062 -16.08516,-13.23134 z"
       id="path121"
       style="stroke-width:0.786176" />
    <path
       fill="#2a1a53"
       d="m 177.48232,330.68175 q -4.60699,-5.80984 -9.87437,-10.72343 c -3.6793,-3.43559 -7.77528,-5.93563 -12.31937,-7.49226 q -1.50946,-0.52674 -0.72329,-1.91827 l 5.18876,-9.17467 q 0.90411,-0.94341 2.36639,-1.50946 0.4324,-0.16509 0.58963,0.2673 0.84907,2.27205 1.27361,2.8381 4.15101,5.63688 6.73753,9.26115 c 5.40888,7.56301 11.44671,15.03168 16.18735,22.65758 1.58022,2.53935 3.28622,4.76423 4.40259,7.13848 q 0.88051,1.87896 1.77675,3.74219 a 0.10220284,0.09434109 77.6 0 1 -0.0865,0.14152 q -0.0943,0 -0.19654,0 -0.055,0 -0.0943,-0.0393 z"
       id="path122"
       style="stroke-width:0.786176" />
    <path
       fill="#2a1a53"
       d="m 248.92996,302.37156 q -0.54246,0.99059 0.30661,2.01261 3.31766,3.96233 5.50323,7.09917 0.2673,0.39309 -0.17296,0.55819 c -8.53786,3.27835 -14.90589,9.35549 -21.2975,15.65275 a 0.36164083,0.36164083 0 0 0 0.055,0.55819 q 0.24371,0.15723 0.51887,0 c -5.40102,4.68561 -8.67938,8.52214 -13.12127,12.73605 q -2.16984,2.06764 -3.69503,4.18245 -1.68241,2.31922 -3.3491,4.65416 -0.0314,0.0393 -0.0786,0.0393 -0.11007,0 -0.19655,-0.0315 -0.0943,-0.0393 -0.0472,-0.12579 3.01892,-6.1243 4.40259,-7.98754 0.94341,-1.27361 1.43084,-2.42928 0.95913,-2.26419 1.13209,-2.54721 5.9199,-10.11022 11.8005,-18.53016 c 2.74375,-3.93875 6.49381,-7.55515 9.18253,-11.25804 q 1.86324,-2.5708 3.76578,-5.30669 0.72328,-1.03775 1.81607,-0.41667 z"
       id="path123"
       style="stroke-width:0.786176" />
    <path
       fill="#f43073"
       d="m 159.75405,301.37312 -5.18876,9.17467 q -0.78617,1.39153 0.72329,1.91827 c 4.54409,1.55663 8.64007,4.05667 12.31937,7.49226 q 5.26738,4.91359 9.87437,10.72343 -10.51903,-8.39635 -22.38243,-12.52378 l -4.15887,-0.94341 -8.46711,-1.0692 a 0.34591731,0.33805556 26 0 1 -0.20441,-0.58177 q 7.99541,-7.91679 17.48455,-14.19047 z"
       id="path124"
       style="stroke-width:0.786176" />
    <path
       fill="#f43073"
       d="m 248.92996,302.37156 q 8.88379,5.99066 16.85561,13.12128 0.33806,0.30661 -0.11792,0.35378 -17.83833,1.74531 -31.8244,12.40585 -0.27516,0.15723 -0.51887,0 a 0.36164083,0.36164083 0 0 1 -0.055,-0.55819 c 6.39161,-6.29726 12.75964,-12.3744 21.2975,-15.65275 q 0.44026,-0.1651 0.17296,-0.55819 -2.18557,-3.13684 -5.50323,-7.09917 -0.84907,-1.02202 -0.30661,-2.01261 z"
       id="path125"
       style="stroke-width:0.786176" />
    <path
       fill="#456dff"
       d="m 73.557746,319.95045 q -5.330272,0.56605 -11.077216,-0.0629 0.621079,-3.02678 2.32708,-4.25321 c 4.02522,-2.90099 8.388495,-0.22799 8.750136,4.3161 z"
       id="path126"
       style="stroke-width:0.786176" />
    <path
       fill="#456dff"
       d="m 345.77109,318.22087 0.0315,0.58177 q 0.0236,0.41667 -0.38523,0.49529 -5.32241,1.02203 -10.49545,-0.27516 c 1.92613,-5.5504 8.47498,-5.80984 10.84923,-0.8019 z"
       id="path127"
       style="stroke-width:0.786176" />
    <path
       fill="#2a1a53"
       d="m 150.94102,317.21456 4.15887,0.94341 q -2.04405,-0.0236 -4.15887,-0.94341 z"
       id="path128"
       style="stroke-width:0.786176" />
    <path
       fill="#2a1a53"
       d="m 345.77109,318.22087 q 0.0315,-0.0472 0.21227,-0.0472 0.21226,0 0.2673,0.21226 0.89624,3.68717 -1.26575,5.89632 -1.8711,1.91827 -4.9529,1.93399 -4.63844,0.0157 -5.66833,-5.34599 -0.1022,-0.51102 0.0472,-0.97486 0.25158,-0.76259 0.51101,-0.87265 5.17304,1.29719 10.49545,0.27516 0.40881,-0.0786 0.38523,-0.49529 z"
       id="path129"
       style="stroke-width:0.786176" />
    <path
       fill="#2a1a53"
       d="m 62.48053,319.88756 q 5.746944,0.62894 11.077216,0.0629 c 0.636802,3.51421 -1.635246,5.48751 -4.945046,5.74695 q -5.511091,0.43239 -6.13217,-5.80984 z"
       id="path130"
       style="stroke-width:0.786176" />
    <path
       fill="#456dff"
       d="m 109.11647,369.38518 q -5.24379,1.19499 -11.140107,0.40881 c 1.328637,-6.21078 9.127497,-6.9262 11.140107,-0.40881 z"
       id="path131"
       style="stroke-width:0.786176" />
    <path
       fill="#456dff"
       d="m 310.574,369.49525 q -6.7218,1.42297 -12.33509,-0.12579 6.32871,-9.35549 12.33509,0.12579 z"
       id="path132"
       style="stroke-width:0.786176" />
    <path
       fill="#2a1a53"
       d="m 109.11647,369.38518 q 1.06134,4.51265 -2.97174,6.27368 c -3.92302,1.72173 -8.616487,-1.31291 -8.168367,-5.86487 q 5.896317,0.78618 11.140107,-0.40881 z"
       id="path133"
       style="stroke-width:0.786176" />
    <path
       fill="#2a1a53"
       d="m 298.23891,369.36946 q 5.61329,1.54876 12.33509,0.12579 -0.71542,5.14159 -5.12586,6.38374 -2.84596,0.79404 -4.89002,-1.12423 -2.31921,-2.1777 -2.31921,-5.3853 z"
       id="path134"
       style="stroke-width:0.786176" />
  </g>
</svg>
